<svg width="34" height="20" viewBox="0 0 34 20" fill="none" xmlns="http://www.w3.org/2000/svg">
<path d="M9.31219 7.17581C9.31219 7.58241 9.35618 7.91211 9.43318 8.15381C9.52118 8.39561 9.63119 8.65931 9.78519 8.94501C9.84019 9.03301 9.86119 9.12091 9.86119 9.19781C9.86119 9.30771 9.79618 9.41761 9.65318 9.52751L8.96019 9.98901C8.86119 10.0549 8.76319 10.0879 8.67519 10.0879C8.56519 10.0879 8.45518 10.033 8.34518 9.93411C8.19118 9.76921 8.05919 9.59341 7.94919 9.41761C7.84019 9.23081 7.73019 9.02201 7.60919 8.76921C6.75219 9.78021 5.67519 10.2857 4.37819 10.2857C3.45519 10.2857 2.71919 10.022 2.18019 9.49451C1.64219 8.96701 1.36719 8.26371 1.36719 7.38461C1.36719 6.45051 1.69719 5.69231 2.36719 5.12091C3.03719 4.54941 3.92719 4.26371 5.05919 4.26371C5.43319 4.26371 5.81818 4.29671 6.22418 4.35161C6.63118 4.40661 7.04819 4.49451 7.48819 4.59341V3.79121C7.48819 2.95601 7.31219 2.37361 6.97119 2.03301C6.62019 1.69231 6.02619 1.52748 5.18019 1.52748C4.79619 1.52748 4.40019 1.57143 3.99319 1.67033C3.58719 1.76923 3.19119 1.89011 2.80719 2.04391C2.63119 2.12091 2.4992 2.16481 2.4222 2.18681C2.3452 2.20881 2.29019 2.21981 2.24619 2.21981C2.09219 2.21981 2.01518 2.10991 2.01518 1.87911V1.34066C2.01518 1.16484 2.03719 1.03297 2.09219 0.95605C2.14719 0.87912 2.24619 0.8022 2.40019 0.72528C2.78519 0.52748 3.24619 0.36264 3.78519 0.23077C4.32319 0.0879201 4.89419 0.0219803 5.49919 0.0219803C6.80719 0.0219803 7.76319 0.31868 8.37819 0.91209C8.98219 1.5055 9.29019 2.40661 9.29019 3.61541V7.17581H9.31219ZM4.85118 8.84611C5.21318 8.84611 5.58719 8.78021 5.98219 8.64831C6.37819 8.51651 6.73018 8.27471 7.02618 7.94501C7.20218 7.73631 7.33419 7.50551 7.40019 7.24181C7.46619 6.97801 7.51019 6.65931 7.51019 6.28571V5.82421C7.19119 5.74721 6.85119 5.68131 6.49919 5.63741C6.14719 5.59341 5.80719 5.57141 5.46619 5.57141C4.73019 5.57141 4.19119 5.71431 3.82919 6.01101C3.46619 6.30771 3.29019 6.72531 3.29019 7.27471C3.29019 7.79121 3.42219 8.17581 3.69719 8.43961C3.96019 8.71431 4.34518 8.84611 4.85118 8.84611ZM13.6752 10.033C13.4772 10.033 13.3452 10 13.2572 9.92311C13.1692 9.85711 13.0922 9.70331 13.0262 9.49451L10.4442 1C10.3782 0.78022 10.3452 0.63737 10.3452 0.56044C10.3452 0.38462 10.4332 0.28572 10.6092 0.28572H11.6862C11.8942 0.28572 12.0372 0.31869 12.1142 0.39561C12.2022 0.46154 12.2682 0.61539 12.3342 0.82418L14.1802 8.09891L15.8942 0.82418C15.9492 0.6044 16.0152 0.46154 16.1032 0.39561C16.1912 0.32967 16.3452 0.28572 16.5432 0.28572H17.4222C17.6312 0.28572 17.7742 0.31869 17.8612 0.39561C17.9492 0.46154 18.0262 0.61539 18.0702 0.82418L19.8072 8.18681L21.7082 0.82418C21.7742 0.6044 21.8512 0.46154 21.9272 0.39561C22.0152 0.32967 22.1582 0.28572 22.3562 0.28572H23.3782C23.5542 0.28572 23.6532 0.37363 23.6532 0.56044C23.6532 0.61539 23.6422 0.67033 23.6312 0.73627C23.6202 0.8022 23.5982 0.89011 23.5542 1.01099L20.9052 9.50551C20.8402 9.72531 20.7632 9.86811 20.6752 9.93411C20.5872 10 20.4442 10.0439 20.2572 10.0439H19.3122C19.1032 10.0439 18.9602 10.011 18.8722 9.93411C18.7852 9.85711 18.7082 9.71431 18.6642 9.49451L16.9602 2.40661L15.2682 9.48351C15.2132 9.70331 15.1472 9.84611 15.0592 9.92311C14.9712 10 14.8182 10.033 14.6202 10.033H13.6752ZM27.7962 10.3297C27.2242 10.3297 26.6532 10.2637 26.1032 10.1319C25.5542 10 25.1252 9.85711 24.8402 9.69231C24.6642 9.59341 24.5432 9.48351 24.4992 9.38461C24.4552 9.28571 24.4332 9.17581 24.4332 9.07691V8.51651C24.4332 8.28571 24.5212 8.17581 24.6862 8.17581C24.7522 8.17581 24.8182 8.18681 24.8832 8.20881C24.9492 8.23081 25.0482 8.27471 25.1582 8.31871C25.5322 8.48351 25.9382 8.61541 26.3672 8.70331C26.8072 8.79121 27.2352 8.83521 27.6752 8.83521C28.3672 8.83521 28.9052 8.71431 29.2792 8.47251C29.6532 8.23081 29.8502 7.87911 29.8502 7.42861C29.8502 7.12091 29.7522 6.86811 29.5542 6.65931C29.3562 6.45051 28.9822 6.26371 28.4442 6.08791L26.8512 5.59341C26.0482 5.34071 25.4552 4.96701 25.0922 4.47251C24.7302 3.98901 24.5432 3.45051 24.5432 2.87911C24.5432 2.41761 24.6422 2.01101 24.8402 1.65934C25.0372 1.3077 25.3012 1 25.6312 0.75825C25.9602 0.5055 26.3342 0.31869 26.7742 0.18682C27.2132 0.05495 27.6752 0 28.1582 0C28.4002 0 28.6532 0.0109896 28.8942 0.0439596C29.1472 0.0769296 29.3782 0.12088 29.6092 0.16484C29.8292 0.21978 30.0372 0.27473 30.2352 0.34066C30.4332 0.4066 30.5872 0.47253 30.6972 0.53847C30.8512 0.62638 30.9602 0.71429 31.0262 0.81319C31.0922 0.9011 31.1252 1.02198 31.1252 1.17583V1.69231C31.1252 1.92311 31.0372 2.04391 30.8722 2.04391C30.7852 2.04391 30.6422 2.00001 30.4552 1.91211C29.8292 1.62638 29.1252 1.48352 28.3452 1.48352C27.7192 1.48352 27.2242 1.58242 26.8832 1.79121C26.5432 2.00001 26.3672 2.31871 26.3672 2.76921C26.3672 3.07691 26.4772 3.34071 26.6972 3.54941C26.9162 3.75821 27.3232 3.96701 27.9052 4.15381L29.4662 4.64831C30.2572 4.90111 30.8292 5.25271 31.1692 5.70331C31.5102 6.15381 31.6752 6.67031 31.6752 7.24181C31.6752 7.71431 31.5762 8.14291 31.3892 8.51651C31.1912 8.89011 30.9272 9.21981 30.5872 9.48351C30.2462 9.75821 29.8402 9.95601 29.3672 10.0989C28.8722 10.2527 28.3562 10.3297 27.7962 10.3297Z" fill="#252F3E"/>
<path fill-rule="evenodd" clip-rule="evenodd" d="M29.8711 15.6702C26.2561 18.3406 21.0031 19.7582 16.4871 19.7582C10.1571 19.7582 4.45408 17.4175 0.146082 13.5274C-0.193918 13.2197 0.113075 12.8021 0.520075 13.0439C5.17908 15.7472 10.9261 17.3845 16.8711 17.3845C20.8821 17.3845 25.2891 16.5494 29.3441 14.8351C29.9481 14.5604 30.4651 15.2307 29.8711 15.6702Z" fill="#FF9900"/>
<path fill-rule="evenodd" clip-rule="evenodd" d="M31.38 13.9561C30.919 13.3627 28.325 13.6704 27.15 13.8132C26.798 13.8572 26.743 13.5495 27.062 13.3187C29.128 11.8682 32.523 12.2857 32.919 12.7693C33.314 13.2638 32.809 16.6594 30.875 18.2857C30.578 18.5385 30.292 18.4066 30.424 18.077C30.864 16.989 31.842 14.5385 31.38 13.9561Z" fill="#FF9900"/>
</svg>
