<svg width="60" height="60" viewBox="0 0 60 60" fill="none" xmlns="http://www.w3.org/2000/svg">
<rect width="60" height="60" rx="10" fill="#303030"/>
<g clip-path="url(#clip0_1_21840)">
<g clip-path="url(#clip1_1_21840)">
<path d="M28 23.7001L28 27.2999C28 27.6866 27.6866 28 27.2999 28L23.7001 28C23.3135 28 23 27.6866 23 27.2999L23 23.7001C23 23.3135 23.3135 23 23.7001 23L27.2999 23C27.6866 23 28 23.3135 28 23.7001Z" fill="#96D3FF"/>
</g>
</g>
<g clip-path="url(#clip2_1_21840)">
<g clip-path="url(#clip3_1_21840)">
<path d="M19 23.7001L19 27.2999C19 27.6866 18.6866 28 18.2999 28L14.7001 28C14.3135 28 14 27.6866 14 27.2999L14 23.7001C14 23.3135 14.3135 23 14.7001 23L18.2999 23C18.6866 23 19 23.3135 19 23.7001Z" fill="#96D3FF"/>
</g>
</g>
<g clip-path="url(#clip4_1_21840)">
<g clip-path="url(#clip5_1_21840)">
<path d="M37 23.7001L37 27.2999C37 27.6866 36.6866 28 36.2999 28L32.7001 28C32.3135 28 32 27.6866 32 27.2999L32 23.7001C32 23.3135 32.3135 23 32.7001 23L36.2999 23C36.6866 23 37 23.3135 37 23.7001Z" fill="#96D3FF"/>
</g>
</g>
<g clip-path="url(#clip6_1_21840)">
<g clip-path="url(#clip7_1_21840)">
<path d="M46 23.7001L46 27.2999C46 27.6866 45.6866 28 45.2999 28L41.7001 28C41.3135 28 41 27.6866 41 27.2999L41 23.7001C41 23.3135 41.3135 23 41.7001 23L45.2999 23C45.6866 23 46 23.3135 46 23.7001Z" fill="#96D3FF"/>
</g>
</g>
<g clip-path="url(#clip8_1_21840)">
<g clip-path="url(#clip9_1_21840)">
<path d="M28 14.7001L28 18.2999C28 18.6866 27.6866 19 27.2999 19L23.7001 19C23.3135 19 23 18.6866 23 18.2999L23 14.7001C23 14.3135 23.3135 14 23.7001 14L27.2999 14C27.6866 14 28 14.3135 28 14.7001Z" fill="#96D3FF"/>
</g>
</g>
<g clip-path="url(#clip10_1_21840)">
<g clip-path="url(#clip11_1_21840)">
<path d="M27.2999 37L23.7001 37C23.3134 37 23 36.6866 23 36.2999L23 32.7001C23 32.3135 23.3134 32 23.7001 32L27.2999 32C27.6865 32 28 32.3135 28 32.7001L28 36.2999C28 36.6866 27.6865 37 27.2999 37Z" fill="#96D3FF"/>
</g>
</g>
<g clip-path="url(#clip12_1_21840)">
<g clip-path="url(#clip13_1_21840)">
<path d="M18.2999 37L14.7001 37C14.3134 37 14 36.6866 14 36.2999L14 32.7001C14 32.3135 14.3134 32 14.7001 32L18.2999 32C18.6865 32 19 32.3135 19 32.7001L19 36.2999C19 36.6866 18.6865 37 18.2999 37Z" fill="#96D3FF"/>
</g>
</g>
<g clip-path="url(#clip14_1_21840)">
<g clip-path="url(#clip15_1_21840)">
<path d="M27.2999 46L23.7001 46C23.3134 46 23 45.6866 23 45.2999L23 41.7001C23 41.3135 23.3134 41 23.7001 41L27.2999 41C27.6865 41 28 41.3135 28 41.7001L28 45.2999C28 45.6866 27.6865 46 27.2999 46Z" fill="#96D3FF"/>
</g>
</g>
<rect x="32" y="37" width="5" height="5" rx="1" transform="rotate(-90 32 37)" fill="#95D3FF"/>
<rect x="41" y="37" width="5" height="5" rx="1" transform="rotate(-90 41 37)" fill="#95D3FF"/>
<rect x="32" y="46" width="5" height="5" rx="1" transform="rotate(-90 32 46)" fill="#95D3FF"/>
<rect x="32" y="19" width="5" height="5" rx="1" transform="rotate(-90 32 19)" fill="#95D3FF"/>
<rect x="0.5" y="0.5" width="59" height="59" rx="9.5" stroke="#606060"/>
<defs>
<clipPath id="clip0_1_21840">
<rect width="5" height="5" fill="white" transform="translate(23 23)"/>
</clipPath>
<clipPath id="clip1_1_21840">
<rect width="5" height="5" fill="white" transform="translate(23 23)"/>
</clipPath>
<clipPath id="clip2_1_21840">
<rect width="5" height="5" fill="white" transform="translate(14 23)"/>
</clipPath>
<clipPath id="clip3_1_21840">
<rect width="5" height="5" fill="white" transform="translate(14 23)"/>
</clipPath>
<clipPath id="clip4_1_21840">
<rect width="5" height="5" fill="white" transform="translate(32 23)"/>
</clipPath>
<clipPath id="clip5_1_21840">
<rect width="5" height="5" fill="white" transform="translate(32 23)"/>
</clipPath>
<clipPath id="clip6_1_21840">
<rect width="5" height="5" fill="white" transform="translate(41 23)"/>
</clipPath>
<clipPath id="clip7_1_21840">
<rect width="5" height="5" fill="white" transform="translate(41 23)"/>
</clipPath>
<clipPath id="clip8_1_21840">
<rect width="5" height="5" fill="white" transform="translate(23 14)"/>
</clipPath>
<clipPath id="clip9_1_21840">
<rect width="5" height="5" fill="white" transform="translate(23 14)"/>
</clipPath>
<clipPath id="clip10_1_21840">
<rect width="5" height="5" fill="white" transform="translate(23 32)"/>
</clipPath>
<clipPath id="clip11_1_21840">
<rect width="5" height="5" fill="white" transform="translate(23 32)"/>
</clipPath>
<clipPath id="clip12_1_21840">
<rect width="5" height="5" fill="white" transform="translate(14 32)"/>
</clipPath>
<clipPath id="clip13_1_21840">
<rect width="5" height="5" fill="white" transform="translate(14 32)"/>
</clipPath>
<clipPath id="clip14_1_21840">
<rect width="5" height="5" fill="white" transform="translate(23 41)"/>
</clipPath>
<clipPath id="clip15_1_21840">
<rect width="5" height="5" fill="white" transform="translate(23 41)"/>
</clipPath>
</defs>
</svg>
