<svg width="20" height="20" viewBox="0 0 20 20" fill="none" xmlns="http://www.w3.org/2000/svg">
<g clip-path="url(#clip0_1_21404)">
<mask id="mask0_1_21404" style="mask-type:luminance" maskUnits="userSpaceOnUse" x="1" y="1" width="18" height="18">
<path d="M19 1H1V19H19V1Z" fill="white"/>
</mask>
<g mask="url(#mask0_1_21404)">
<path d="M1 2.28925C1 1.57713 1.59175 1 2.32187 1H17.6781C18.4082 1 19 1.57713 19 2.28925V17.7108C19 18.4229 18.4082 19 17.6781 19H2.32187C1.59175 19 1 18.4229 1 17.7108V2.28925ZM6.56087 16.0683V7.94013H3.85975V16.0683H6.56087ZM5.21088 6.82975C6.1525 6.82975 6.73862 6.2065 6.73862 5.42575C6.72175 4.62813 6.15363 4.02175 5.22888 4.02175C4.30413 4.02175 3.7 4.62925 3.7 5.42575C3.7 6.2065 4.28613 6.82975 5.19287 6.82975H5.21088ZM10.7324 16.0683V11.5289C10.7324 11.2859 10.7504 11.0429 10.8224 10.8696C11.017 10.3847 11.4614 9.88187 12.2084 9.88187C13.186 9.88187 13.5764 10.6266 13.5764 11.7201V16.0683H16.2775V11.4062C16.2775 8.90875 14.9455 7.74775 13.168 7.74775C11.7347 7.74775 11.0924 8.53525 10.7324 9.08987V9.118H10.7144C10.7204 9.10861 10.7263 9.09923 10.7324 9.08987V7.94013H8.03237C8.06612 8.70288 8.03237 16.0683 8.03237 16.0683H10.7324Z" fill="white"/>
</g>
</g>
<defs>
<clipPath id="clip0_1_21404">
<rect width="20" height="20" fill="white"/>
</clipPath>
</defs>
</svg>
