<svg width="60" height="60" viewBox="0 0 60 60" fill="none" xmlns="http://www.w3.org/2000/svg">
<rect width="60" height="60" rx="10" fill="#303030"/>
<g clip-path="url(#clip0_1_21903)">
<g clip-path="url(#clip1_1_21903)">
<path d="M27.5 25.4276L27.5 29.0275C27.5 29.4141 27.1866 29.7275 26.7999 29.7275L23.2001 29.7275C22.8135 29.7275 22.5 29.4141 22.5 29.0275L22.5 25.4276C22.5 25.041 22.8135 24.7276 23.2001 24.7276L26.7999 24.7276C27.1866 24.7276 27.5 25.041 27.5 25.4276Z" fill="#FDAFAF"/>
</g>
</g>
<g clip-path="url(#clip2_1_21903)">
<g clip-path="url(#clip3_1_21903)">
<path d="M32.5 20.4276L32.5 24.0275C32.5 24.4141 32.1866 24.7275 31.7999 24.7275L28.2001 24.7275C27.8135 24.7275 27.5 24.4141 27.5 24.0275L27.5 20.4276C27.5 20.041 27.8135 19.7276 28.2001 19.7276L31.7999 19.7276C32.1866 19.7276 32.5 20.041 32.5 20.4276Z" fill="#FDAFAF"/>
</g>
</g>
<g clip-path="url(#clip4_1_21903)">
<g clip-path="url(#clip5_1_21903)">
<path d="M20.7999 34.7275L17.2001 34.7275C16.8134 34.7275 16.5 34.4141 16.5 34.0275L16.5 30.4276C16.5 30.041 16.8134 29.7276 17.2001 29.7276L20.7999 29.7276C21.1865 29.7276 21.5 30.041 21.5 30.4276L21.5 34.0275C21.5 34.4141 21.1865 34.7275 20.7999 34.7275Z" fill="#FDAFAF"/>
</g>
</g>
<g clip-path="url(#clip6_1_21903)">
<g clip-path="url(#clip7_1_21903)">
<path d="M15.7999 39.7275L12.2001 39.7275C11.8134 39.7275 11.5 39.4141 11.5 39.0275L11.5 35.4276C11.5 35.041 11.8134 34.7276 12.2001 34.7276L15.7999 34.7276C16.1865 34.7276 16.5 35.041 16.5 35.4276L16.5 39.0275C16.5 39.4141 16.1865 39.7275 15.7999 39.7275Z" fill="#FDAFAF"/>
</g>
</g>
<g clip-path="url(#clip8_1_21903)">
<g clip-path="url(#clip9_1_21903)">
<path d="M42.5 25.4276L42.5 29.0275C42.5 29.4141 42.1866 29.7275 41.7999 29.7275L38.2001 29.7275C37.8135 29.7275 37.5 29.4141 37.5 29.0275L37.5 25.4276C37.5 25.041 37.8135 24.7276 38.2001 24.7276L41.7999 24.7276C42.1866 24.7276 42.5 25.041 42.5 25.4276Z" fill="#FDAFAF"/>
</g>
</g>
<g clip-path="url(#clip10_1_21903)">
<g clip-path="url(#clip11_1_21903)">
<path d="M47.5 20.4276L47.5 24.0275C47.5 24.4141 47.1866 24.7275 46.7999 24.7275L43.2001 24.7275C42.8135 24.7275 42.5 24.4141 42.5 24.0275L42.5 20.4276C42.5 20.041 42.8135 19.7276 43.2001 19.7276L46.7999 19.7276C47.1866 19.7276 47.5 20.041 47.5 20.4276Z" fill="#FDAFAF"/>
</g>
</g>
<g clip-path="url(#clip12_1_21903)">
<g clip-path="url(#clip13_1_21903)">
<path d="M35.7999 34.7275L32.2001 34.7275C31.8134 34.7275 31.5 34.4141 31.5 34.0275L31.5 30.4276C31.5 30.041 31.8134 29.7276 32.2001 29.7276L35.7999 29.7276C36.1865 29.7276 36.5 30.041 36.5 30.4276L36.5 34.0275C36.5 34.4141 36.1865 34.7275 35.7999 34.7275Z" fill="#FDAFAF"/>
</g>
</g>
<g clip-path="url(#clip14_1_21903)">
<g clip-path="url(#clip15_1_21903)">
<path d="M30.7999 39.7275L27.2001 39.7275C26.8134 39.7275 26.5 39.4141 26.5 39.0275L26.5 35.4276C26.5 35.041 26.8134 34.7276 27.2001 34.7276L30.7999 34.7276C31.1865 34.7276 31.5 35.041 31.5 35.4276L31.5 39.0275C31.5 39.4141 31.1865 39.7275 30.7999 39.7275Z" fill="#FDAFAF"/>
</g>
</g>
<g clip-path="url(#clip16_1_21903)">
<g clip-path="url(#clip17_1_21903)">
<path d="M46.2999 39.2275L42.7001 39.2275C42.3134 39.2275 42 38.9141 42 38.5275L42 34.9276C42 34.541 42.3134 34.2276 42.7001 34.2276L46.2999 34.2276C46.6865 34.2276 47 34.541 47 34.9276L47 38.5275C47 38.9141 46.6865 39.2275 46.2999 39.2275Z" fill="#FDAFAF"/>
</g>
</g>
<g clip-path="url(#clip18_1_21903)">
<g clip-path="url(#clip19_1_21903)">
<path d="M16.2999 24.2275L12.7001 24.2275C12.3134 24.2275 12 23.9141 12 23.5275L12 19.9276C12 19.541 12.3134 19.2276 12.7001 19.2276L16.2999 19.2276C16.6865 19.2276 17 19.541 17 19.9276L17 23.5275C17 23.9141 16.6865 24.2275 16.2999 24.2275Z" fill="#FDAFAF"/>
</g>
</g>
<rect x="0.5" y="0.5" width="59" height="59" rx="9.5" stroke="#606060"/>
<defs>
<clipPath id="clip0_1_21903">
<rect width="5" height="6" fill="white" transform="translate(22.5 24.5)"/>
</clipPath>
<clipPath id="clip1_1_21903">
<rect width="5" height="6" fill="white" transform="translate(22.5 24.5)"/>
</clipPath>
<clipPath id="clip2_1_21903">
<rect width="5" height="6" fill="white" transform="translate(27.5 19.5)"/>
</clipPath>
<clipPath id="clip3_1_21903">
<rect width="5" height="6" fill="white" transform="translate(27.5 19.5)"/>
</clipPath>
<clipPath id="clip4_1_21903">
<rect width="5" height="6" fill="white" transform="translate(16.5 29.5)"/>
</clipPath>
<clipPath id="clip5_1_21903">
<rect width="5" height="6" fill="white" transform="translate(16.5 29.5)"/>
</clipPath>
<clipPath id="clip6_1_21903">
<rect width="5" height="6" fill="white" transform="translate(11.5 34.5)"/>
</clipPath>
<clipPath id="clip7_1_21903">
<rect width="5" height="6" fill="white" transform="translate(11.5 34.5)"/>
</clipPath>
<clipPath id="clip8_1_21903">
<rect width="5" height="6" fill="white" transform="translate(37.5 24.5)"/>
</clipPath>
<clipPath id="clip9_1_21903">
<rect width="5" height="6" fill="white" transform="translate(37.5 24.5)"/>
</clipPath>
<clipPath id="clip10_1_21903">
<rect width="5" height="6" fill="white" transform="translate(42.5 19.5)"/>
</clipPath>
<clipPath id="clip11_1_21903">
<rect width="5" height="6" fill="white" transform="translate(42.5 19.5)"/>
</clipPath>
<clipPath id="clip12_1_21903">
<rect width="5" height="6" fill="white" transform="translate(31.5 29.5)"/>
</clipPath>
<clipPath id="clip13_1_21903">
<rect width="5" height="6" fill="white" transform="translate(31.5 29.5)"/>
</clipPath>
<clipPath id="clip14_1_21903">
<rect width="5" height="6" fill="white" transform="translate(26.5 34.5)"/>
</clipPath>
<clipPath id="clip15_1_21903">
<rect width="5" height="6" fill="white" transform="translate(26.5 34.5)"/>
</clipPath>
<clipPath id="clip16_1_21903">
<rect width="5" height="6" fill="white" transform="translate(42 34)"/>
</clipPath>
<clipPath id="clip17_1_21903">
<rect width="5" height="6" fill="white" transform="translate(42 34)"/>
</clipPath>
<clipPath id="clip18_1_21903">
<rect width="5" height="6" fill="white" transform="translate(12 19)"/>
</clipPath>
<clipPath id="clip19_1_21903">
<rect width="5" height="6" fill="white" transform="translate(12 19)"/>
</clipPath>
</defs>
</svg>
