<svg width="28" height="28" viewBox="0 0 28 28" fill="none" xmlns="http://www.w3.org/2000/svg">
<path fill-rule="evenodd" clip-rule="evenodd" d="M0 26.526C0 27.34 0.66 28 1.474 28H7.368C8.181 28 8.841 27.34 8.841 26.526V23.47C8.841 22.656 9.501 21.996 10.315 21.996H11.161C11.975 21.996 12.635 21.336 12.635 20.522V16.838C12.635 16.024 11.975 15.364 11.161 15.364H7.478C6.664 15.364 6.004 16.024 6.004 16.838V17.684C6.004 18.498 5.344 19.158 4.531 19.158H1.474C0.66 19.158 0 19.818 0 20.632V26.526ZM8.842 5.267C8.842 6.081 9.502 6.741 10.316 6.741H11.162C11.976 6.741 12.636 7.401 12.636 8.214V11.162C12.636 11.976 11.976 12.635 11.162 12.635H8.215C7.401 12.635 6.741 11.975 6.741 11.162V10.316C6.741 9.502 6.081 8.842 5.267 8.842H1.474C0.66 8.842 0 8.182 0 7.369V1.474C0 0.66 0.66 0 1.474 0H7.368C8.182 0 8.842 0.66 8.842 1.474V5.267ZM21.259 10.316C21.259 9.502 21.919 8.842 22.733 8.842H26.526C27.34 8.842 28 8.182 28 7.369V1.474C28 0.66 27.34 0 26.526 0H20.632C19.818 0 19.158 0.66 19.158 1.474V5.267C19.158 6.081 18.498 6.741 17.684 6.741H16.838C16.024 6.741 15.364 7.401 15.364 8.214V11.162C15.364 11.976 16.024 12.635 16.838 12.635H19.786C20.599 12.635 21.259 11.975 21.259 11.162V10.316ZM27.999 26.526C27.999 27.34 27.34 28 26.526 28H20.631C19.817 28 19.158 27.34 19.158 26.526V22.733C19.158 21.919 18.498 21.259 17.684 21.259H16.838C16.024 21.259 15.365 20.599 15.365 19.786V16.838C15.365 16.024 16.025 15.365 16.838 15.365H19.786C20.599 15.365 21.259 16.025 21.259 16.838V17.684C21.259 18.498 21.919 19.158 22.733 19.158H26.526C27.34 19.158 28 19.818 28 20.632L27.999 26.526Z" fill="white"/>
</svg>
