<svg width="14" height="15" viewBox="0 0 14 15" fill="none" xmlns="http://www.w3.org/2000/svg">
<g clip-path="url(#clip0_1_21508)">
<g clip-path="url(#clip1_1_21508)">
<path fill-rule="evenodd" clip-rule="evenodd" d="M0 13.6419C0 14.0489 0.33 14.3789 0.737 14.3789H3.684C4.091 14.3789 4.421 14.0489 4.421 13.6419V12.1139C4.421 11.7069 4.751 11.3769 5.158 11.3769H5.581C5.988 11.3769 6.318 11.0469 6.318 10.6399V8.79791C6.318 8.70112 6.29894 8.60529 6.2619 8.51587C6.22486 8.42645 6.17057 8.3452 6.10214 8.27677C6.0337 8.20833 5.95245 8.15404 5.86304 8.11701C5.77362 8.07997 5.67778 8.06091 5.581 8.06091H3.739C3.54354 8.06091 3.35608 8.13855 3.21786 8.27677C3.07965 8.41498 3.002 8.60244 3.002 8.79791V9.22091C3.002 9.62791 2.672 9.95791 2.265 9.95791H0.737C0.541535 9.95791 0.354077 10.0356 0.215862 10.1738C0.077648 10.312 0 10.4994 0 10.6949L0 13.6419ZM4.421 3.01191C4.421 3.41891 4.751 3.74891 5.158 3.74891H5.581C5.988 3.74891 6.318 4.07891 6.318 4.48591V5.95991C6.318 6.36691 5.988 6.69691 5.581 6.69691H4.107C3.91154 6.69691 3.72408 6.61926 3.58586 6.48104C3.44765 6.34283 3.37 6.15537 3.37 5.95991V5.53691C3.37 5.34161 3.29249 5.15431 3.15449 5.01612C3.01649 4.87794 2.82929 4.80017 2.634 4.79991H0.737C0.541535 4.79991 0.354077 4.72226 0.215862 4.58404C0.077648 4.44583 0 4.25837 0 4.06291L0 1.11591C0 0.708906 0.33 0.378906 0.737 0.378906H3.684C4.091 0.378906 4.421 0.708906 4.421 1.11591V3.01191ZM10.63 5.53691C10.63 5.12991 10.96 4.79991 11.366 4.79991H13.263C13.67 4.79991 14 4.46991 14 4.06291V1.11591C14 0.920442 13.9224 0.732983 13.7841 0.594769C13.6459 0.456554 13.4585 0.378906 13.263 0.378906H10.316C10.2192 0.378906 10.1234 0.397969 10.034 0.435007C9.94455 0.472045 9.8633 0.526332 9.79486 0.594769C9.72643 0.663205 9.67214 0.744452 9.6351 0.833869C9.59806 0.923286 9.579 1.01912 9.579 1.11591V3.01191C9.579 3.41891 9.249 3.74891 8.842 3.74891H8.42C8.22454 3.74891 8.03708 3.82655 7.89886 3.96477C7.76065 4.10298 7.683 4.29044 7.683 4.48591V5.95991C7.683 6.36691 8.013 6.69691 8.42 6.69691H9.894C10.301 6.69691 10.631 6.36691 10.631 5.95991L10.63 5.53691ZM14 13.6419C14 14.0489 13.67 14.3789 13.263 14.3789H10.316C10.2192 14.3789 10.1234 14.3598 10.034 14.3228C9.94455 14.2858 9.8633 14.2315 9.79486 14.163C9.72643 14.0946 9.67214 14.0134 9.6351 13.9239C9.59806 13.8345 9.579 13.7387 9.579 13.6419V11.7449C9.57874 11.5496 9.50097 11.3624 9.36278 11.2244C9.2246 11.0864 9.03729 11.0089 8.842 11.0089H8.419C8.22354 11.0089 8.03608 10.9313 7.89786 10.793C7.75965 10.6548 7.682 10.4674 7.682 10.2719V8.79791C7.682 8.39091 8.012 8.06091 8.419 8.06091H9.893C10.3 8.06091 10.63 8.39091 10.63 8.79791V9.22091C10.63 9.62791 10.96 9.95791 11.366 9.95791H13.263C13.67 9.95791 14 10.2879 14 10.6949V13.6419Z" fill="white"/>
</g>
</g>
<defs>
<clipPath id="clip0_1_21508">
<rect width="14" height="15" fill="white"/>
</clipPath>
<clipPath id="clip1_1_21508">
<rect width="14" height="15" fill="white"/>
</clipPath>
</defs>
</svg>
