<svg width="21" height="21" viewBox="0 0 21 21" fill="none" xmlns="http://www.w3.org/2000/svg">
<g clip-path="url(#clip0_1_21366)">
<path d="M4.80356 13.2387C4.80198 13.7952 4.58022 14.3284 4.18674 14.7219C3.79325 15.1154 3.26003 15.3371 2.70356 15.3387C2.14692 15.3376 1.61333 15.1163 1.21945 14.7229C0.825561 14.3296 0.603412 13.7963 0.601562 13.2397C0.601563 12.0827 1.54656 11.1387 2.70256 11.1387H4.80356V13.2387ZM5.86156 13.2387C5.86156 12.0817 6.80656 11.1377 7.96356 11.1377C9.11956 11.1377 10.0636 12.0817 10.0636 13.2377V18.4997C10.0625 19.0564 9.84095 19.5901 9.44738 19.9838C9.05381 20.3776 8.52028 20.5994 7.96356 20.6007C7.40692 20.5994 6.87344 20.3777 6.47974 19.9842C6.08604 19.5907 5.86415 19.0573 5.86256 18.5007V13.2397L5.86156 13.2387Z" fill="#E01E5A"/>
<path d="M7.96356 4.80161C7.40692 4.80029 6.87344 4.57865 6.47974 4.18514C6.08604 3.79162 5.86415 3.25825 5.86256 2.70161C5.86309 2.14481 6.08431 1.61091 6.47775 1.21691C6.87119 0.822913 7.40476 0.600932 7.96156 0.599609C9.11856 0.599609 10.0626 1.54461 10.0626 2.70061V4.80161H7.96356ZM7.96356 5.85961C9.11956 5.85961 10.0636 6.80461 10.0636 7.96161C10.062 8.51808 9.84022 9.0513 9.44674 9.44478C9.05325 9.83827 8.52003 10.06 7.96356 10.0616H2.70356C2.14692 10.0606 1.61333 9.83917 1.21945 9.44584C0.825561 9.05252 0.603412 8.51925 0.601562 7.96261C0.601563 6.80561 1.54656 5.86161 2.70256 5.86161H7.96256L7.96356 5.85961Z" fill="#36C5F0"/>
<path d="M16.4006 7.96161C16.4006 6.80461 17.3456 5.86061 18.5016 5.86061C19.6586 5.86061 20.6026 6.80461 20.6026 7.96061C20.6016 8.51742 20.38 9.05116 19.9865 9.44508C19.593 9.83899 19.0594 10.061 18.5026 10.0626H16.4006V7.96161ZM15.3426 7.96161C15.3426 9.11761 14.3976 10.0616 13.2406 10.0616C12.0846 10.0616 11.1406 9.11761 11.1406 7.96161V2.70161C11.1406 1.54461 12.0846 0.599609 13.2406 0.599609C14.3976 0.599609 15.3416 1.54461 15.3416 2.70061V7.96061L15.3426 7.96161Z" fill="#2EB67D"/>
<path d="M13.2416 16.3977C14.3986 16.3977 15.3426 17.3427 15.3426 18.4977C15.3416 19.0545 15.12 19.5882 14.7265 19.9822C14.333 20.3761 13.7994 20.5981 13.2426 20.5997C12.6857 20.5984 12.152 20.3766 11.7581 19.9829C11.3642 19.5892 11.1422 19.0556 11.1406 18.4987V16.3977H13.2416ZM13.2416 15.3397C12.0856 15.3397 11.1416 14.3947 11.1416 13.2387C11.1416 12.0817 12.0856 11.1377 13.2416 11.1377H18.5036C19.6596 11.1377 20.6046 12.0817 20.6046 13.2377C20.6036 13.7947 20.3819 14.3286 19.9882 14.7225C19.5944 15.1165 19.0606 15.3384 18.5036 15.3397H13.2436H13.2416Z" fill="#ECB22E"/>
</g>
<defs>
<clipPath id="clip0_1_21366">
<rect width="21" height="21" fill="white"/>
</clipPath>
</defs>
</svg>
