<svg width="26" height="26" viewBox="0 0 26 26" fill="none" xmlns="http://www.w3.org/2000/svg">
<path fill-rule="evenodd" clip-rule="evenodd" d="M0 24.132C0 24.887 0.612 25.5 1.368 25.5H6.842C7.598 25.5 8.21 24.887 8.21 24.132V21.293C8.21 20.538 8.823 19.925 9.579 19.925H10.365C11.12 19.925 11.733 19.312 11.733 18.556V15.136C11.733 14.38 11.12 13.767 10.365 13.767H6.944C6.188 13.767 5.575 14.38 5.575 15.135V15.921C5.575 16.677 4.962 17.29 4.207 17.29H1.368C0.613 17.29 0 17.902 0 18.658V24.132ZM8.21 4.39C8.21 5.146 8.823 5.758 9.579 5.758H10.365C11.12 5.758 11.733 6.371 11.733 7.127V9.864C11.733 10.619 11.12 11.232 10.365 11.232H7.628C7.44827 11.2321 7.27027 11.1968 7.10418 11.1282C6.93809 11.0595 6.78717 10.9587 6.66003 10.8317C6.53289 10.7046 6.43204 10.5538 6.36323 10.3877C6.29442 10.2217 6.259 10.0437 6.259 9.864V9.078C6.259 8.322 5.647 7.71 4.891 7.71H1.368C1.00518 7.71 0.657228 7.56587 0.400678 7.30932C0.144128 7.05277 0 6.70482 0 6.342V0.87C0 0.113 0.612 -0.5 1.368 -0.5H6.842C7.598 -0.5 8.21 0.113 8.21 0.869V4.39ZM19.74 9.078C19.74 8.322 20.353 7.71 21.109 7.71H24.632C25.387 7.71 26 7.097 26 6.341V0.87C26 0.507 25.8559 0.158838 25.5994 -0.0980299C25.343 -0.354897 24.995 -0.49947 24.632 -0.5H19.158C18.795 -0.499735 18.4469 -0.355417 18.1903 -0.0987366C17.9336 0.157943 17.7893 0.506 17.789 0.869V4.39C17.789 5.146 17.177 5.758 16.421 5.758H15.635C14.88 5.758 14.267 6.371 14.267 7.127V9.864C14.267 10.619 14.88 11.232 15.635 11.232H18.372C19.128 11.232 19.741 10.619 19.741 9.864L19.74 9.078ZM26 24.131C26 24.886 25.387 25.499 24.631 25.499H19.158C18.9783 25.4991 18.8003 25.4638 18.6342 25.3952C18.4681 25.3265 18.3172 25.2257 18.19 25.0987C18.0629 24.9716 17.962 24.8208 17.8932 24.6547C17.8244 24.4887 17.789 24.3107 17.789 24.131V20.608C17.789 19.853 17.176 19.24 16.421 19.24H15.635C15.4553 19.24 15.2773 19.2046 15.1113 19.1358C14.9452 19.067 14.7944 18.9661 14.6673 18.839C14.5403 18.7118 14.4395 18.5609 14.3708 18.3948C14.3022 18.2287 14.2669 18.0507 14.267 17.871V15.135C14.267 14.379 14.88 13.766 15.635 13.766H18.372C18.735 13.7663 19.0831 13.9106 19.3397 14.1673C19.5964 14.4239 19.7407 14.772 19.741 15.135V15.92C19.741 16.676 20.353 17.289 21.109 17.289H24.631C25.387 17.289 26 17.901 26 18.657V24.131Z" fill="#131313"/>
</svg>
