<svg width="21" height="21" viewBox="0 0 21 21" fill="none" xmlns="http://www.w3.org/2000/svg">
<g clip-path="url(#clip0_1_21414)">
<g clip-path="url(#clip1_1_21414)">
<path d="M4.80356 13.2386C4.80198 13.7951 4.58022 14.3283 4.18674 14.7218C3.79325 15.1153 3.26003 15.337 2.70356 15.3386C2.14692 15.3376 1.61333 15.1162 1.21945 14.7228C0.825561 14.3295 0.603412 13.7962 0.601562 13.2396C0.601563 12.0826 1.54656 11.1386 2.70256 11.1386H4.80356V13.2386ZM5.86156 13.2386C5.86156 12.0816 6.80656 11.1376 7.96356 11.1376C9.11956 11.1376 10.0636 12.0816 10.0636 13.2376V18.4996C10.0625 19.0563 9.84095 19.59 9.44738 19.9837C9.05381 20.3775 8.52028 20.5993 7.96356 20.6006C7.40692 20.5993 6.87344 20.3776 6.47974 19.9841C6.08604 19.5906 5.86415 19.0572 5.86256 18.5006V13.2396L5.86156 13.2386ZM7.96356 4.80161C7.40692 4.80029 6.87344 4.57865 6.47974 4.18514C6.08604 3.79162 5.86415 3.25825 5.86256 2.70161C5.86309 2.14481 6.08431 1.61091 6.47775 1.21691C6.87119 0.822913 7.40476 0.600932 7.96156 0.599609C9.11856 0.599609 10.0626 1.54461 10.0626 2.70061V4.80161H7.96356ZM7.96356 5.85961C9.11956 5.85961 10.0636 6.80461 10.0636 7.96161C10.062 8.51808 9.84022 9.0513 9.44674 9.44478C9.05325 9.83827 8.52003 10.06 7.96356 10.0616H2.70356C2.14692 10.0606 1.61333 9.83917 1.21945 9.44584C0.825561 9.05252 0.603412 8.51925 0.601562 7.96261C0.601562 6.80561 1.54656 5.86161 2.70256 5.86161H7.96256L7.96356 5.85961ZM16.3996 7.96161C16.3996 6.80461 17.3446 5.86061 18.5006 5.86061C19.6576 5.86061 20.6016 6.80461 20.6016 7.96061C20.6005 8.51742 20.379 9.05116 19.9854 9.44508C19.5919 9.83899 19.0584 10.061 18.5016 10.0626H16.3996V7.96161ZM15.3416 7.96161C15.3416 9.11761 14.3966 10.0616 13.2396 10.0616C12.0836 10.0616 11.1396 9.11761 11.1396 7.96161V2.70161C11.1396 1.54461 12.0836 0.599609 13.2396 0.599609C14.3966 0.599609 15.3406 1.54461 15.3406 2.70061V7.96061L15.3416 7.96161ZM13.2396 16.3976C14.3966 16.3976 15.3406 17.3426 15.3406 18.4976C15.3395 19.0544 15.118 19.5882 14.7244 19.9821C14.3309 20.376 13.7974 20.598 13.2406 20.5996C12.6837 20.5983 12.1499 20.3765 11.756 19.9828C11.3621 19.5891 11.1401 19.0555 11.1386 18.4986V16.3976H13.2396ZM13.2396 15.3396C12.0836 15.3396 11.1396 14.3946 11.1396 13.2386C11.1396 12.0816 12.0836 11.1376 13.2396 11.1376H18.5016C19.6576 11.1376 20.6026 12.0816 20.6026 13.2376C20.6015 13.7946 20.3798 14.3285 19.9861 14.7224C19.5923 15.1164 19.0585 15.3383 18.5016 15.3396H13.2416H13.2396Z" fill="white"/>
</g>
</g>
<defs>
<clipPath id="clip0_1_21414">
<rect width="21" height="21" fill="white"/>
</clipPath>
<clipPath id="clip1_1_21414">
<rect width="21" height="21" fill="white"/>
</clipPath>
</defs>
</svg>
