<svg width="60" height="60" viewBox="0 0 60 60" fill="none" xmlns="http://www.w3.org/2000/svg">
<rect width="60" height="60" rx="10" fill="#303030"/>
<g clip-path="url(#clip0_1_21940)">
<g clip-path="url(#clip1_1_21940)">
<path d="M27 28.7001L27 32.2999C27 32.6866 26.6866 33 26.2999 33L22.7001 33C22.3135 33 22 32.6866 22 32.2999L22 28.7001C22 28.3135 22.3135 28 22.7001 28L26.2999 28C26.6866 28 27 28.3135 27 28.7001Z" fill="#A2CEAD"/>
</g>
</g>
<g clip-path="url(#clip2_1_21940)">
<g clip-path="url(#clip3_1_21940)">
<path d="M21 16.7001L21 20.2999C21 20.6866 20.6866 21 20.2999 21L16.7001 21C16.3135 21 16 20.6866 16 20.2999L16 16.7001C16 16.3135 16.3135 16 16.7001 16L20.2999 16C20.6866 16 21 16.3135 21 16.7001Z" fill="#A2CEAD"/>
</g>
</g>
<g clip-path="url(#clip4_1_21940)">
<g clip-path="url(#clip5_1_21940)">
<path d="M33 22.7001L33 26.2999C33 26.6866 32.6866 27 32.2999 27L28.7001 27C28.3134 27 28 26.6866 28 26.2999L28 22.7001C28 22.3134 28.3134 22 28.7001 22L32.2999 22C32.6866 22 33 22.3134 33 22.7001Z" fill="#A2CEAD"/>
</g>
</g>
<g clip-path="url(#clip6_1_21940)">
<g clip-path="url(#clip7_1_21940)">
<path d="M20.2999 45L16.7001 45C16.3134 45 16 44.6866 16 44.2999L16 40.7001C16 40.3135 16.3134 40 16.7001 40L20.2999 40C20.6865 40 21 40.3135 21 40.7001L21 44.2999C21 44.6866 20.6865 45 20.2999 45Z" fill="#A2CEAD"/>
</g>
</g>
<rect x="40" y="45" width="5" height="5" rx="1" transform="rotate(-90 40 45)" fill="#A2CEAD"/>
<rect x="34" y="33" width="5" height="5" rx="1" transform="rotate(-90 34 33)" fill="#A2CEAD"/>
<rect x="40" y="21" width="5" height="5" rx="1" transform="rotate(-90 40 21)" fill="#A2CEAD"/>
<g clip-path="url(#clip8_1_21940)">
<g clip-path="url(#clip9_1_21940)">
<path d="M32.2999 39L28.7001 39C28.3134 39 28 38.6866 28 38.2999L28 34.7001C28 34.3135 28.3134 34 28.7001 34L32.2999 34C32.6865 34 33 34.3135 33 34.7001L33 38.2999C33 38.6866 32.6865 39 32.2999 39Z" fill="#A2CEAD"/>
</g>
</g>
<rect x="0.5" y="0.5" width="59" height="59" rx="9.5" stroke="#606060"/>
<defs>
<clipPath id="clip0_1_21940">
<rect width="5" height="5" fill="white" transform="translate(22 28)"/>
</clipPath>
<clipPath id="clip1_1_21940">
<rect width="5" height="5" fill="white" transform="translate(22 28)"/>
</clipPath>
<clipPath id="clip2_1_21940">
<rect width="5" height="5" fill="white" transform="translate(16 16)"/>
</clipPath>
<clipPath id="clip3_1_21940">
<rect width="5" height="5" fill="white" transform="translate(16 16)"/>
</clipPath>
<clipPath id="clip4_1_21940">
<rect width="5" height="5" fill="white" transform="translate(28 22)"/>
</clipPath>
<clipPath id="clip5_1_21940">
<rect width="5" height="5" fill="white" transform="translate(28 22)"/>
</clipPath>
<clipPath id="clip6_1_21940">
<rect width="5" height="5" fill="white" transform="translate(16 40)"/>
</clipPath>
<clipPath id="clip7_1_21940">
<rect width="5" height="5" fill="white" transform="translate(16 40)"/>
</clipPath>
<clipPath id="clip8_1_21940">
<rect width="5" height="5" fill="white" transform="translate(28 34)"/>
</clipPath>
<clipPath id="clip9_1_21940">
<rect width="5" height="5" fill="white" transform="translate(28 34)"/>
</clipPath>
</defs>
</svg>
